<svg width="125" height="123" viewBox="0 0 125 123" fill="none" xmlns="http://www.w3.org/2000/svg">
<mask id="path-1-inside-1_156_1992" fill="white">
<path fill-rule="evenodd" clip-rule="evenodd" d="M64.0425 122.889C64.0424 122.889 64.0424 122.889 64.0423 122.889C28.6727 122.889 -2.40497e-06 95.3793 -5.37164e-06 61.4445C-8.33832e-06 27.5096 28.6727 2.80109e-05 64.0423 2.49188e-05C64.0423 2.49188e-05 64.0424 2.49188e-05 64.0425 2.49188e-05L64.0425 122.889Z"/>
</mask>
<path fill-rule="evenodd" clip-rule="evenodd" d="M64.0425 122.889C64.0424 122.889 64.0424 122.889 64.0423 122.889C28.6727 122.889 -2.40497e-06 95.3793 -5.37164e-06 61.4445C-8.33832e-06 27.5096 28.6727 2.80109e-05 64.0423 2.49188e-05C64.0423 2.49188e-05 64.0424 2.49188e-05 64.0425 2.49188e-05L64.0425 122.889Z" fill="#FAFAFF"/>
<path d="M64.0425 122.889L66.0425 122.889L66.0425 124.889L64.0425 124.889L64.0425 122.889ZM64.0425 2.49188e-05L64.0425 -1.99998L66.0425 -1.99998L66.0425 2.4744e-05L64.0425 2.49188e-05ZM64.0423 120.889C64.0423 120.889 64.0424 120.889 64.0424 120.889C64.0424 120.889 64.0425 120.889 64.0425 120.889L64.0425 124.889C64.0425 124.889 64.0425 124.889 64.0424 124.889C64.0424 124.889 64.0423 124.889 64.0423 124.889L64.0423 120.889ZM1.99999 61.4445C2 94.1975 29.6984 120.889 64.0423 120.889L64.0423 124.889C27.647 124.889 -2 96.5611 -2.00001 61.4445L1.99999 61.4445ZM64.0423 2.00002C29.6984 2.00003 1.99999 28.6915 1.99999 61.4445L-2.00001 61.4445C-2.00001 26.3278 27.647 -1.99997 64.0423 -1.99998L64.0423 2.00002ZM64.0425 2.00002C64.0425 2.00002 64.0425 2.00002 64.0425 2.00002C64.0425 2.00002 64.0425 2.00002 64.0425 2.00002C64.0425 2.00002 64.0425 2.00002 64.0425 2.00002C64.0425 2.00002 64.0425 2.00002 64.0425 2.00002C64.0425 2.00002 64.0425 2.00002 64.0425 2.00002L64.0425 2.00002C64.0425 2.00002 64.0425 2.00002 64.0425 2.00002L64.0425 2.00002C64.0425 2.00002 64.0425 2.00002 64.0424 2.00002L64.0424 2.00002C64.0424 2.00002 64.0424 2.00002 64.0424 2.00002L64.0424 2.00002C64.0424 2.00002 64.0424 2.00002 64.0424 2.00002L64.0424 2.00002C64.0424 2.00002 64.0424 2.00002 64.0424 2.00002L64.0424 2.00002C64.0424 2.00002 64.0424 2.00002 64.0424 2.00002L64.0424 2.00002C64.0424 2.00002 64.0424 2.00002 64.0424 2.00002L64.0424 2.00002C64.0424 2.00002 64.0424 2.00002 64.0424 2.00002L64.0423 2.00002C64.0423 2.00002 64.0423 2.00002 64.0423 2.00002L64.0423 2.00002C64.0423 2.00002 64.0423 2.00002 64.0423 2.00002L64.0423 2.00002C64.0423 2.00002 64.0423 2.00002 64.0423 2.00002C64.0423 2.00002 64.0423 2.00002 64.0423 2.00002C64.0423 2.00002 64.0423 2.00002 64.0423 2.00002C64.0423 2.00002 64.0423 2.00002 64.0423 2.00002C64.0423 2.00002 64.0423 2.00002 64.0423 2.00002C64.0423 2.00002 64.0423 2.00002 64.0423 2.00002C64.0423 2.00002 64.0423 2.00002 64.0423 2.00002L64.0423 -1.99998C64.0423 -1.99998 64.0423 -1.99998 64.0423 -1.99998C64.0423 -1.99998 64.0423 -1.99998 64.0423 -1.99998C64.0423 -1.99998 64.0423 -1.99998 64.0423 -1.99998C64.0423 -1.99998 64.0423 -1.99998 64.0423 -1.99998C64.0423 -1.99998 64.0423 -1.99998 64.0423 -1.99998C64.0423 -1.99998 64.0423 -1.99998 64.0423 -1.99998C64.0423 -1.99998 64.0423 -1.99998 64.0423 -1.99998L64.0423 -1.99998C64.0423 -1.99998 64.0423 -1.99998 64.0423 -1.99998L64.0423 -1.99998C64.0423 -1.99998 64.0423 -1.99998 64.0423 -1.99998L64.0424 -1.99998C64.0424 -1.99998 64.0424 -1.99998 64.0424 -1.99998L64.0424 -1.99998C64.0424 -1.99998 64.0424 -1.99998 64.0424 -1.99998L64.0424 -1.99998C64.0424 -1.99998 64.0424 -1.99998 64.0424 -1.99998L64.0424 -1.99998C64.0424 -1.99998 64.0424 -1.99998 64.0424 -1.99998L64.0424 -1.99998C64.0424 -1.99998 64.0424 -1.99998 64.0424 -1.99998L64.0424 -1.99998C64.0424 -1.99998 64.0424 -1.99998 64.0424 -1.99998L64.0424 -1.99998C64.0425 -1.99998 64.0425 -1.99998 64.0425 -1.99998L64.0425 -1.99998C64.0425 -1.99998 64.0425 -1.99998 64.0425 -1.99998L64.0425 -1.99998C64.0425 -1.99998 64.0425 -1.99998 64.0425 -1.99998C64.0425 -1.99998 64.0425 -1.99998 64.0425 -1.99998C64.0425 -1.99998 64.0425 -1.99998 64.0425 -1.99998C64.0425 -1.99998 64.0425 -1.99998 64.0425 -1.99998C64.0425 -1.99998 64.0425 -1.99998 64.0425 -1.99998L64.0425 2.00002ZM66.0425 2.4744e-05L66.0425 122.889L62.0425 122.889L62.0425 2.50936e-05L66.0425 2.4744e-05Z" fill="#B887CE" mask="url(#path-1-inside-1_156_1992)"/>
<path fill-rule="evenodd" clip-rule="evenodd" d="M63 122.666C97.0169 122.547 124.556 95.1333 124.556 61.3333C124.556 27.5334 97.0169 0.119199 63 0.00036083L63 122.666Z" fill="#B887CE"/>
<circle cx="89.5" cy="62.5" r="8.5" fill="#FAFAFF"/>
</svg>
