<svg width="198" height="187" viewBox="0 0 198 187" fill="none" xmlns="http://www.w3.org/2000/svg">
<g clip-path="url(#clip0_168_15)">
<path d="M5.15927 149.274C5.64676 149.179 6.1681 149.125 6.7233 149.112C7.29204 149.098 7.74567 149.091 8.08421 149.091C8.43628 149.091 8.85607 149.098 9.34356 149.112C9.84459 149.125 10.3388 149.179 10.8263 149.274L14.6856 161.989C14.7804 162.301 14.9091 162.754 15.0716 163.35C15.2341 163.946 15.3966 164.583 15.5591 165.26C15.7351 165.937 15.8908 166.566 16.0262 167.149C16.1616 167.731 16.2497 168.157 16.2903 168.428H16.5137C16.5543 168.157 16.6424 167.731 16.7778 167.149C16.9132 166.566 17.0689 165.937 17.245 165.26C17.421 164.583 17.5835 163.946 17.7324 163.35C17.8949 162.754 18.0236 162.301 18.1184 161.989L21.998 149.274C22.5126 149.179 23.0068 149.125 23.4808 149.112C23.9683 149.098 24.388 149.091 24.7401 149.091C25.0786 149.091 25.5187 149.098 26.0604 149.112C26.6156 149.125 27.1505 149.179 27.6651 149.274L29.8181 176.939C29.5067 177.02 29.1478 177.081 28.7416 177.122C28.3353 177.162 27.9562 177.183 27.6041 177.183C27.2656 177.183 26.9406 177.169 26.6291 177.142C26.3177 177.129 25.9995 177.095 25.6745 177.041L24.7198 162.192C24.6792 161.448 24.6386 160.588 24.5979 159.613C24.5573 158.638 24.5167 157.649 24.4761 156.647C24.449 155.632 24.4219 154.724 24.3948 153.925H24.1714L18.5856 172.755C18.2606 172.809 17.8949 172.85 17.4887 172.877C17.0825 172.904 16.7101 172.917 16.3715 172.917C16.0601 172.917 15.7012 172.904 15.295 172.877C14.8888 172.85 14.5299 172.809 14.2185 172.755L8.63263 153.925H8.4092C8.38212 154.724 8.34826 155.632 8.30764 156.647C8.28056 157.649 8.2467 158.638 8.20608 159.613C8.179 160.588 8.13837 161.448 8.08421 162.192L7.10923 177.041C6.79778 177.095 6.47955 177.129 6.15456 177.142C5.82957 177.169 5.4978 177.183 5.15927 177.183C4.80719 177.183 4.42803 177.162 4.02179 177.122C3.62909 177.081 3.29056 177.02 3.00619 176.939L5.15927 149.274ZM36.4649 149.518L36.729 149.254H40.6899V152.808C40.6899 153.377 40.6966 153.844 40.7102 154.21C40.7237 154.562 40.7305 155.016 40.7305 155.571V171.394C40.7305 171.759 40.7237 172.098 40.7102 172.409C40.6966 172.707 40.6899 173.053 40.6899 173.445V177.041H38.943C38.1847 177.041 37.5821 176.804 37.1352 176.33C36.6884 175.856 36.4649 175.199 36.4649 174.359V149.518ZM50.8865 161.197C50.9542 161.468 51.0016 161.779 51.0287 162.132C51.0693 162.47 51.0896 162.754 51.0896 162.985C51.0896 163.228 51.0693 163.52 51.0287 163.858C51.0016 164.183 50.9542 164.495 50.8865 164.792H43.2492C42.9377 164.792 42.545 164.792 42.0711 164.792C41.5971 164.779 41.1029 164.772 40.5883 164.772C40.0873 164.759 39.6336 164.745 39.2274 164.732V161.238C39.6336 161.238 40.0873 161.238 40.5883 161.238C41.1029 161.224 41.5971 161.218 42.0711 161.218C42.545 161.204 42.9377 161.197 43.2492 161.197H50.8865ZM53.0802 149.254C53.1479 149.579 53.1885 149.89 53.2021 150.188C53.2156 150.472 53.2224 150.736 53.2224 150.98C53.2224 151.224 53.1953 151.529 53.1412 151.894C53.1005 152.246 53.0125 152.585 52.8771 152.91H43.2492C42.9377 152.91 42.545 152.91 42.0711 152.91C41.5971 152.91 41.1029 152.91 40.5883 152.91C40.0873 152.896 39.6336 152.883 39.2274 152.869V149.254H53.0802ZM53.8724 173.364C53.8724 174.678 53.6693 175.619 53.263 176.188C52.8703 176.756 52.1188 177.041 51.0084 177.041H39.2274V173.547C39.8774 173.506 40.5206 173.466 41.157 173.425C41.7935 173.384 42.5315 173.364 43.371 173.364H53.8724ZM60.9778 149.274C61.4653 149.179 61.9866 149.125 62.5418 149.112C63.1106 149.098 63.5642 149.091 63.9027 149.091C64.2548 149.091 64.6746 149.098 65.1621 149.112C65.6631 149.125 66.1574 149.179 66.6449 149.274L70.5042 161.989C70.599 162.301 70.7276 162.754 70.8901 163.35C71.0526 163.946 71.2151 164.583 71.3776 165.26C71.5536 165.937 71.7094 166.566 71.8448 167.149C71.9802 167.731 72.0682 168.157 72.1088 168.428H72.3323C72.3729 168.157 72.4609 167.731 72.5963 167.149C72.7317 166.566 72.8875 165.937 73.0635 165.26C73.2395 164.583 73.402 163.946 73.551 163.35C73.7135 162.754 73.8421 162.301 73.9369 161.989L77.8165 149.274C78.3311 149.179 78.8254 149.125 79.2993 149.112C79.7868 149.098 80.2066 149.091 80.5587 149.091C80.8972 149.091 81.3373 149.098 81.8789 149.112C82.4341 149.125 82.969 149.179 83.4836 149.274L85.6367 176.939C85.3252 177.02 84.9664 177.081 84.5601 177.122C84.1539 177.162 83.7747 177.183 83.4227 177.183C83.0841 177.183 82.7591 177.169 82.4477 177.142C82.1362 177.129 81.818 177.095 81.493 177.041L80.5383 162.192C80.4977 161.448 80.4571 160.588 80.4165 159.613C80.3758 158.638 80.3352 157.649 80.2946 156.647C80.2675 155.632 80.2404 154.724 80.2133 153.925H79.9899L74.4041 172.755C74.0791 172.809 73.7135 172.85 73.3072 172.877C72.901 172.904 72.5286 172.917 72.1901 172.917C71.8786 172.917 71.5198 172.904 71.1135 172.877C70.7073 172.85 70.3484 172.809 70.037 172.755L64.4512 153.925H64.2277C64.2007 154.724 64.1668 155.632 64.1262 156.647C64.0991 157.649 64.0652 158.638 64.0246 159.613C63.9975 160.588 63.9569 161.448 63.9027 162.192L62.9278 177.041C62.6163 177.095 62.2981 177.129 61.9731 177.142C61.6481 177.169 61.3163 177.183 60.9778 177.183C60.6257 177.183 60.2466 177.162 59.8403 177.122C59.4476 177.081 59.1091 177.02 58.8247 176.939L60.9778 149.274ZM95.1678 163.107C95.1678 164.339 95.2626 165.598 95.4522 166.885C95.6417 168.157 95.9735 169.342 96.4475 170.439C96.9349 171.523 97.6256 172.403 98.5193 173.08C99.413 173.743 100.571 174.075 101.993 174.075C103.414 174.075 104.566 173.743 105.446 173.08C106.339 172.403 107.023 171.523 107.497 170.439C107.985 169.342 108.316 168.157 108.493 166.885C108.682 165.598 108.777 164.339 108.777 163.107C108.777 161.874 108.682 160.622 108.493 159.349C108.316 158.076 107.985 156.898 107.497 155.815C107.023 154.718 106.339 153.837 105.446 153.174C104.566 152.51 103.414 152.179 101.993 152.179C100.571 152.179 99.413 152.51 98.5193 153.174C97.6256 153.837 96.9349 154.718 96.4475 155.815C95.9735 156.898 95.6417 158.076 95.4522 159.349C95.2626 160.622 95.1678 161.874 95.1678 163.107ZM90.6382 163.107C90.6382 160.371 91.0444 157.92 91.8569 155.754C92.6829 153.587 93.9355 151.874 95.6147 150.615C97.2938 149.355 99.4198 148.726 101.993 148.726C104.579 148.726 106.712 149.362 108.391 150.635C110.07 151.894 111.316 153.607 112.128 155.774C112.941 157.941 113.347 160.385 113.347 163.107C113.347 165.855 112.934 168.32 112.108 170.5C111.282 172.667 110.029 174.38 108.35 175.639C106.685 176.898 104.566 177.528 101.993 177.528C99.4062 177.528 97.2735 176.892 95.5943 175.619C93.9152 174.346 92.6694 172.626 91.8569 170.46C91.0444 168.279 90.6382 165.828 90.6382 163.107ZM137.283 157.419C137.283 158.665 137.053 159.789 136.592 160.791C136.132 161.793 135.509 162.639 134.724 163.33C133.938 164.007 133.058 164.501 132.083 164.813C132.747 165.043 133.315 165.476 133.789 166.113C134.277 166.749 134.663 167.467 134.947 168.266L136.755 173.019C137.053 173.818 137.337 174.434 137.608 174.867C137.879 175.287 138.197 175.646 138.563 175.944C138.278 176.364 137.852 176.695 137.283 176.939C136.728 177.169 136.179 177.284 135.638 177.284C134.825 177.284 134.229 177.061 133.85 176.614C133.471 176.167 133.119 175.504 132.794 174.623L130.763 169.139C130.438 168.205 129.984 167.426 129.402 166.803C128.833 166.167 127.919 165.849 126.66 165.849H121.582V162.457C122.178 162.429 122.861 162.409 123.633 162.396C124.405 162.369 125.17 162.348 125.929 162.335C126.687 162.321 127.323 162.314 127.838 162.314C129.165 162.314 130.181 162.071 130.885 161.583C131.602 161.096 132.097 160.48 132.367 159.735C132.652 158.976 132.794 158.205 132.794 157.419C132.794 156.593 132.652 155.808 132.367 155.063C132.097 154.305 131.602 153.689 130.885 153.215C130.181 152.741 129.165 152.504 127.838 152.504C127.269 152.504 126.551 152.504 125.685 152.504C124.818 152.49 124.04 152.477 123.349 152.463V177C123.01 177.054 122.645 177.095 122.252 177.122C121.873 177.149 121.514 177.162 121.176 177.162C120.864 177.162 120.505 177.149 120.099 177.122C119.706 177.095 119.354 177.054 119.043 177V149.477L119.307 149.233C120.837 149.193 122.333 149.159 123.796 149.132C125.258 149.105 126.68 149.091 128.061 149.091C129.944 149.091 131.569 149.409 132.936 150.046C134.317 150.682 135.387 151.617 136.146 152.849C136.904 154.081 137.283 155.605 137.283 157.419ZM143.563 149.254C143.874 149.186 144.226 149.145 144.619 149.132C145.025 149.105 145.384 149.091 145.696 149.091C146.048 149.091 146.42 149.105 146.813 149.132C147.206 149.145 147.564 149.186 147.889 149.254V177C147.564 177.054 147.206 177.095 146.813 177.122C146.42 177.149 146.048 177.162 145.696 177.162C145.384 177.162 145.025 177.149 144.619 177.122C144.226 177.095 143.874 177.054 143.563 177V149.254ZM155.362 149.518L155.626 149.254H159.587V152.808C159.587 153.377 159.594 153.844 159.607 154.21C159.621 154.562 159.628 155.016 159.628 155.571V171.394C159.628 171.759 159.621 172.098 159.607 172.409C159.594 172.707 159.587 173.053 159.587 173.445V177.041H157.84C157.082 177.041 156.479 176.804 156.032 176.33C155.585 175.856 155.362 175.199 155.362 174.359V149.518ZM169.784 161.197C169.851 161.468 169.899 161.779 169.926 162.132C169.966 162.47 169.987 162.754 169.987 162.985C169.987 163.228 169.966 163.52 169.926 163.858C169.899 164.183 169.851 164.495 169.784 164.792H162.146C161.835 164.792 161.442 164.792 160.968 164.792C160.494 164.779 160 164.772 159.485 164.772C158.984 164.759 158.531 164.745 158.124 164.732V161.238C158.531 161.238 158.984 161.238 159.485 161.238C160 161.224 160.494 161.218 160.968 161.218C161.442 161.204 161.835 161.197 162.146 161.197H169.784ZM171.977 149.254C172.045 149.579 172.086 149.89 172.099 150.188C172.113 150.472 172.119 150.736 172.119 150.98C172.119 151.224 172.092 151.529 172.038 151.894C171.998 152.246 171.91 152.585 171.774 152.91H162.146C161.835 152.91 161.442 152.91 160.968 152.91C160.494 152.91 160 152.91 159.485 152.91C158.984 152.896 158.531 152.883 158.124 152.869V149.254H171.977ZM172.769 173.364C172.769 174.678 172.566 175.619 172.16 176.188C171.767 176.756 171.016 177.041 169.905 177.041H158.124V173.547C158.774 173.506 159.418 173.466 160.054 173.425C160.691 173.384 161.429 173.364 162.268 173.364H172.769ZM175.934 174.481C176.002 173.858 176.212 173.242 176.564 172.633C176.93 172.01 177.329 171.523 177.762 171.17C178.941 171.942 180.247 172.592 181.683 173.12C183.118 173.649 184.54 173.913 185.948 173.913C187.587 173.913 188.853 173.554 189.747 172.836C190.654 172.118 191.107 171.204 191.107 170.094C191.107 169.146 190.789 168.306 190.153 167.575C189.516 166.83 188.602 166.208 187.411 165.706L182.495 163.655C180.789 162.924 179.428 161.996 178.412 160.872C177.41 159.748 176.909 158.32 176.909 156.586C176.909 155.11 177.295 153.783 178.067 152.605C178.852 151.414 179.936 150.472 181.317 149.782C182.698 149.078 184.296 148.726 186.111 148.726C187.803 148.726 189.394 148.942 190.884 149.376C192.374 149.809 193.646 150.29 194.703 150.818C194.676 151.441 194.52 152.064 194.236 152.686C193.951 153.296 193.586 153.804 193.139 154.21C192.082 153.668 190.918 153.215 189.645 152.849C188.386 152.483 187.228 152.301 186.172 152.301C184.669 152.301 183.484 152.666 182.617 153.397C181.764 154.129 181.337 155.029 181.337 156.099C181.337 156.993 181.649 157.724 182.272 158.293C182.895 158.861 183.707 159.356 184.709 159.775L189.564 161.786C190.715 162.274 191.751 162.876 192.671 163.594C193.592 164.312 194.317 165.151 194.845 166.113C195.373 167.074 195.637 168.164 195.637 169.383C195.637 170.927 195.271 172.321 194.54 173.567C193.809 174.8 192.705 175.768 191.229 176.472C189.767 177.176 187.918 177.528 185.684 177.528C184.005 177.528 182.299 177.257 180.565 176.716C178.846 176.174 177.302 175.429 175.934 174.481Z" fill="#B887CE"/>
<mask id="path-2-inside-1_168_15" fill="white">
<path fill-rule="evenodd" clip-rule="evenodd" d="M101.043 122.889C101.042 122.889 101.042 122.889 101.042 122.889C65.6727 122.889 37 95.3793 37 61.4445C37 27.5096 65.6727 2.80109e-05 101.042 2.49188e-05C101.042 2.49188e-05 101.042 2.49188e-05 101.043 2.49188e-05L101.043 122.889Z"/>
</mask>
<path fill-rule="evenodd" clip-rule="evenodd" d="M101.043 122.889C101.042 122.889 101.042 122.889 101.042 122.889C65.6727 122.889 37 95.3793 37 61.4445C37 27.5096 65.6727 2.80109e-05 101.042 2.49188e-05C101.042 2.49188e-05 101.042 2.49188e-05 101.043 2.49188e-05L101.043 122.889Z" fill="#FAFAFF"/>
<path d="M101.043 122.889L103.043 122.889L103.043 124.889L101.043 124.889L101.043 122.889ZM101.043 2.49188e-05L101.043 -1.99998L103.043 -1.99998L103.043 2.4744e-05L101.043 2.49188e-05ZM101.042 120.889C101.042 120.889 101.042 120.889 101.042 120.889C101.042 120.889 101.042 120.889 101.043 120.889L101.043 124.889C101.042 124.889 101.042 124.889 101.042 124.889C101.042 124.889 101.042 124.889 101.042 124.889L101.042 120.889ZM39 61.4445C39 94.1975 66.6984 120.889 101.042 120.889L101.042 124.889C64.647 124.889 35 96.5611 35 61.4445L39 61.4445ZM101.042 2.00002C66.6984 2.00003 39 28.6915 39 61.4445L35 61.4445C35 26.3278 64.647 -1.99997 101.042 -1.99998L101.042 2.00002ZM101.043 2.00002C101.042 2.00002 101.042 2.00002 101.042 2.00002C101.042 2.00002 101.042 2.00002 101.042 2.00002L101.042 -1.99998C101.042 -1.99998 101.042 -1.99998 101.042 -1.99998C101.042 -1.99998 101.042 -1.99998 101.043 -1.99998L101.043 2.00002ZM103.043 2.4744e-05L103.043 122.889L99.0425 122.889L99.0425 2.50936e-05L103.043 2.4744e-05Z" fill="#B887CE" mask="url(#path-2-inside-1_168_15)"/>
<mask id="path-4-inside-2_168_15" fill="white">
<path fill-rule="evenodd" clip-rule="evenodd" d="M100 122.666C134.017 122.547 161.556 95.1333 161.556 61.3333C161.556 27.5334 134.017 0.119199 100 0.00036083L100 122.666Z"/>
</mask>
<path fill-rule="evenodd" clip-rule="evenodd" d="M100 122.666C134.017 122.547 161.556 95.1333 161.556 61.3333C161.556 27.5334 134.017 0.119199 100 0.00036083L100 122.666Z" fill="#FAFAFF"/>
<path d="M100 122.666L98 122.666L98 124.673L100.007 124.666L100 122.666ZM100 0.00036083L100.007 -1.99963L98 -2.00664L98 0.000360655L100 0.00036083ZM159.556 61.3333C159.556 94.0175 132.922 120.551 99.993 120.666L100.007 124.666C135.112 124.544 163.556 96.249 163.556 61.3333L159.556 61.3333ZM99.9931 2.00035C132.922 2.11539 159.556 28.6491 159.556 61.3333L163.556 61.3333C163.556 26.4176 135.112 -1.87699 100.007 -1.99963L99.9931 2.00035ZM98 0.000360655L98 122.666L102 122.666L102 0.000361004L98 0.000360655Z" fill="#B887CE" mask="url(#path-4-inside-2_168_15)"/>
<circle cx="126.5" cy="62.5" r="8.5" fill="#B887CE"/>
</g>
<defs>
<clipPath id="clip0_168_15">
<rect width="198" height="187" fill="white"/>
</clipPath>
</defs>
</svg>
